<svg xmlns="http://www.w3.org/2000/svg" shape-rendering="geometricPrecision" text-rendering="geometricPrecision" image-rendering="optimizeQuality" fill-rule="evenodd" clip-rule="evenodd" viewBox="0 0 512 512"><path fill-rule="nonzero" d="M256 0c70.69 0 134.692 28.653 181.017 74.983C483.347 121.311 512 185.31 512 256s-28.653 134.692-74.983 181.017C390.692 483.347 326.69 512 256 512s-134.692-28.653-181.017-74.983C28.653 390.692 0 326.69 0 256S28.653 121.308 74.983 74.983C121.311 28.653 185.31 0 256 0zm126.479 156.062h-60.555v35.34h60.555v-35.34zM175.6 205.281h60.522v35.326l-60.522.001v-35.327zm-.023 49.188h60.568v35.32h-60.568v-35.32zm73.191-.029h60.551v35.31h-60.551v-35.31zm73.16 49.225h60.553v35.363h-60.553v-35.363zm-73.16.001h60.552v35.362h-60.552v-35.362zm-73.183 0h60.552v35.362h-60.552v-35.362zm-73.159 0h60.551v35.362h-60.551v-35.362zm219.469-49.176h60.546v35.347h-60.546V254.49zm.032-49.223h60.552v35.352h-60.552v-35.352zm97.855-113.049C377.869 50.306 319.963 24.381 256 24.381c-63.96 0-121.866 25.925-163.778 67.837C50.309 134.131 24.384 192.037 24.384 256c0 63.96 25.925 121.866 67.838 163.778 41.912 41.913 99.818 67.838 163.778 67.838 63.963 0 121.869-25.925 163.782-67.838 41.912-41.912 67.837-99.818 67.837-163.778 0-63.963-25.925-121.869-67.837-163.782z"/></svg>