<?xml version="1.0" ?><svg viewBox="0 0 24 24" xmlns="http://www.w3.org/2000/svg"><title/><g id="Itunes"><g data-name="&lt;Group&gt;" id="_Group_"><circle cx="12" cy="12" data-name="&lt;Path&gt;" id="_Path_" r="11.5" style="fill:none;stroke:#303c42;stroke-linecap:round;stroke-linejoin:round"/><path d="M9.5,14.5V17a1.23,1.23,0,0,1-1,1.22l-.53.09A1.23,1.23,0,0,1,6.5,17h0a1.23,1.23,0,0,1,1-1.22l.94-.16a1.23,1.23,0,0,0,1-1.22v-8l7-1v8a1.23,1.23,0,0,1-1,1.22l-.94.16a1.23,1.23,0,0,0-1,1.22h0a1.23,1.23,0,0,0,1.44,1.22l.53-.09a1.23,1.23,0,0,0,1-1.22V13.5" data-name="&lt;Path&gt;" id="_Path_2" style="fill:none;stroke:#303c42;stroke-linecap:round;stroke-linejoin:round"/><line data-name="&lt;Path&gt;" id="_Path_3" style="fill:none;stroke:#303c42;stroke-linecap:round;stroke-linejoin:round" x1="9.5" x2="16.5" y1="9" y2="8"/></g></g></svg>